<!-- icon666.com - MILLIONS vector ICONS FREE --><svg id="Capa_1" enable-background="new 0 0 511.989 511.989" viewBox="0 0 511.989 511.989" xmlns="http://www.w3.org/2000/svg"><g><path d="m332.754 365.817c0-4.142-3.358-7.5-7.5-7.5h-285.164c-13.835 0-25.09-11.255-25.09-25.09v-236.927h33.238c4.142 0 7.5-3.358 7.5-7.5s-3.358-7.5-7.5-7.5h-33.238v-25.09c0-13.835 11.255-25.09 25.09-25.09h342.197c13.834 0 25.09 11.255 25.09 25.09v25.09h-326.549c-4.142 0-7.5 3.358-7.5 7.5s3.358 7.5 7.5 7.5h326.549v179.894c0 4.142 3.358 7.5 7.5 7.5s7.5-3.358 7.5-7.5v-219.984c0-22.106-17.984-40.09-40.09-40.09h-342.197c-22.106 0-40.09 17.984-40.09 40.09v277.016c0 22.106 17.984 40.09 40.09 40.09h285.164c4.142.001 7.5-3.357 7.5-7.499z" fill="#000000" style="fill: rgb(34, 0, 77);"></path><path d="m40.09 48.71c-4.142 0-7.5 3.358-7.5 7.5s3.358 7.5 7.5 7.5h8.147c4.142 0 7.5-3.358 7.5-7.5s-3.358-7.5-7.5-7.5z" fill="#000000" style="fill: rgb(34, 0, 77);"></path><path d="m80.828 63.71h8.148c4.142 0 7.5-3.358 7.5-7.5s-3.358-7.5-7.5-7.5h-8.148c-4.142 0-7.5 3.358-7.5 7.5s3.358 7.5 7.5 7.5z" fill="#000000" style="fill: rgb(34, 0, 77);"></path><path d="m382.287 63.71c4.142 0 7.5-3.358 7.5-7.5s-3.358-7.5-7.5-7.5h-260.722c-4.142 0-7.5 3.358-7.5 7.5s3.358 7.5 7.5 7.5z" fill="#000000" style="fill: rgb(34, 0, 77);"></path><path d="m505.03 298.708-23.044-23.044c-9.277-9.278-24.374-9.278-33.651 0l-132.829 132.827c-4.378 4.377-7.727 9.796-9.685 15.67l-20.612 61.835c-.898 2.695-.197 5.666 1.812 7.675 1.43 1.43 3.346 2.197 5.304 2.197.793 0 1.594-.126 2.371-.385l61.835-20.612c5.874-1.958 11.292-5.307 15.67-9.685l.316-.316c.002-.002.003-.003.005-.005s.003-.003.005-.005l132.503-132.501c9.278-9.278 9.278-24.373 0-33.651zm-137.81 150.248-12.438-12.438 110.378-110.378 12.438 12.438zm-23.045-23.044-12.438-12.438 110.378-110.378 12.438 12.438zm-34.17 33.132 11.644 11.644-17.466 5.822zm27.554 6.341-22.25-22.25 4.743-14.229c.473-1.419 1.079-2.794 1.798-4.107l17.02 17.02c.001.001.002.002.002.003s.002.002.002.002l17.02 17.02c-1.313.719-2.688 1.325-4.106 1.798zm156.865-143.632-6.219 6.219-35.483-35.483 6.219-6.219c1.661-1.661 3.87-2.576 6.219-2.576s4.558.915 6.219 2.576l23.044 23.044c1.661 1.661 2.576 3.87 2.576 6.219s-.914 4.558-2.575 6.22z" fill="#000000" style="fill: rgb(34, 0, 77);"></path><path d="m81.476 208.446v2.568c0 17.613 14.329 31.942 31.942 31.942s31.943-14.329 31.943-31.942v-2.568c4.851-2.661 8.147-7.815 8.147-13.728v-16.295c0-17.613-14.33-31.942-31.943-31.942h-16.295c-17.613 0-31.943 14.329-31.943 31.942v16.295c.001 5.912 3.298 11.067 8.149 13.728zm48.885 2.567c0 9.342-7.601 16.942-16.943 16.942s-16.942-7.6-16.942-16.942v-12.658l10.054-7.927 23.831 9.394zm-25.09-49.532h16.295c9.342 0 16.943 7.6 16.943 16.942v8.488l-30.487-12.018c-2.483-.977-5.298-.563-7.394 1.088l-12.299 9.697v-7.255c-.001-9.342 7.599-16.942 16.942-16.942z" fill="#000000" style="fill: rgb(34, 0, 77);"></path><path d="m194.246 284.341v-146.656c0-13.121-10.675-23.795-23.795-23.795h-114.066c-13.121 0-23.795 10.674-23.795 23.795v146.656c0 13.121 10.674 23.795 23.795 23.795h114.065c13.121 0 23.796-10.674 23.796-23.795zm-137.861-155.451h114.065c4.85 0 8.795 3.945 8.795 8.795v119.833c-1.594-.993-3.287-1.864-5.08-2.582l-25.373-10.149c-2.43-.974-5.191-.608-7.285.963l-17.925 13.443c-5.985 4.489-14.346 4.489-20.331 0l-17.925-13.443c-2.093-1.57-4.854-1.936-7.285-.963l-25.373 10.149c-1.792.717-3.485 1.588-5.079 2.581v-119.832c.001-4.849 3.947-8.795 8.796-8.795zm-8.789 155.559c.058-6.908 4.221-13.016 10.645-15.585l21.459-8.584 14.553 10.915c11.286 8.464 27.048 8.463 38.331 0l14.553-10.915 21.459 8.583c6.425 2.57 10.587 8.677 10.646 15.585-.059 4.8-3.977 8.688-8.79 8.688h-114.067c-4.813 0-8.731-3.888-8.789-8.687z" fill="#000000" style="fill: rgb(34, 0, 77);"></path><path d="m64.533 325.726c-4.142 0-7.5 3.358-7.5 7.5s3.358 7.5 7.5 7.5h97.771c4.142 0 7.5-3.358 7.5-7.5s-3.358-7.5-7.5-7.5z" fill="#000000" style="fill: rgb(34, 0, 77);"></path><path d="m227.483 145.185h114.066c4.142 0 7.5-3.358 7.5-7.5s-3.358-7.5-7.5-7.5h-114.066c-4.142 0-7.5 3.358-7.5 7.5s3.358 7.5 7.5 7.5z" fill="#000000" style="fill: rgb(34, 0, 77);"></path><path d="m227.483 177.776h114.066c4.142 0 7.5-3.358 7.5-7.5s-3.358-7.5-7.5-7.5h-114.066c-4.142 0-7.5 3.358-7.5 7.5s3.358 7.5 7.5 7.5z" fill="#000000" style="fill: rgb(34, 0, 77);"></path><path d="m374.139 211.661h-146.656c-4.142 0-7.5 3.358-7.5 7.5s3.358 7.5 7.5 7.5h146.656c4.142 0 7.5-3.358 7.5-7.5s-3.358-7.5-7.5-7.5z" fill="#000000" style="fill: rgb(34, 0, 77);"></path><path d="m381.639 284.341c0-4.142-3.358-7.5-7.5-7.5h-146.656c-4.142 0-7.5 3.358-7.5 7.5s3.358 7.5 7.5 7.5h146.656c4.142 0 7.5-3.358 7.5-7.5z" fill="#000000" style="fill: rgb(34, 0, 77);"></path><path d="m227.483 309.431c-4.142 0-7.5 3.358-7.5 7.5s3.358 7.5 7.5 7.5h114.066c4.142 0 7.5-3.358 7.5-7.5s-3.358-7.5-7.5-7.5z" fill="#000000" style="fill: rgb(34, 0, 77);"></path><path d="m374.139 244.251h-146.656c-4.142 0-7.5 3.358-7.5 7.5s3.358 7.5 7.5 7.5h146.656c4.142 0 7.5-3.358 7.5-7.5s-3.358-7.5-7.5-7.5z" fill="#000000" style="fill: rgb(34, 0, 77);"></path></g></svg>