<!-- icon666.com - MILLIONS vector ICONS FREE --><svg id="Layer_1" enable-background="new 0 0 54 54" viewBox="0 0 54 54" xmlns="http://www.w3.org/2000/svg"><g><path d="m22.765 40.985c-.476-.317-.686-.602-2.019-1.876-1.589 1.511-1.547 1.55-2.07 1.917l.779 1.158h-.01l-1.149 9.316h4.817l-1.148-9.316z" fill="#000000" style="fill: rgb(34, 0, 77);"></path><path d="m16.554 41.651c-1.035 0-2.009-.4-2.736-1.148l-5.217-5.268c-2.019.953-3.31 2.982-3.31 5.227v9.88c0 .635.523 1.158 1.168 1.158h10.29l1.107-8.947-.646-.963c-.216.04-.431.061-.656.061z" fill="#000000" style="fill: rgb(34, 0, 77);"></path><path d="m31.486 39.048c0-.984.154-1.937.441-2.829l-4.253 4.294c-.728.738-1.701 1.138-2.747 1.138-.246 0-.482-.021-.717-.072l-.646.974 1.097 8.947h10.372c.635 0 1.158-.523 1.158-1.158v-3.177c-2.809-1.62-4.705-4.653-4.705-8.117z" fill="#000000" style="fill: rgb(34, 0, 77);"></path><path d="m40.869 31.194c-4.337 0-7.849 3.512-7.849 7.849 0 4.328 3.512 7.841 7.849 7.841 4.328 0 7.84-3.512 7.84-7.841.001-4.336-3.511-7.849-7.84-7.849zm3.735 8.87h-2.714v2.714c0 .566-.459 1.025-1.025 1.025s-1.025-.459-1.025-1.025v-2.714h-2.714c-.566 0-1.025-.459-1.025-1.025s.459-1.025 1.025-1.025h2.714v-2.714c0-.566.459-1.025 1.025-1.025s1.025.459 1.025 1.025v2.714h2.714c.566 0 1.025.459 1.025 1.025s-.459 1.025-1.025 1.025z" fill="#000000" style="fill: rgb(34, 0, 77);"></path><circle cx="16.133" cy="22.045" r="1.363" fill="#000000" style="fill: rgb(34, 0, 77);"></circle><circle cx="25.356" cy="22.045" r="1.363" fill="#000000" style="fill: rgb(34, 0, 77);"></circle><path d="m26.579 39.429 4.812-4.86-2.682-1.177-.939-.411-.06-2.11c1.627-1.424 2.812-3.335 3.334-5.503 2.106-.194 3.763-1.946 3.763-4.102 0-1.097-.43-2.091-1.127-2.829.184-.892.297-1.804.297-2.716 0-7.287-5.934-13.221-13.242-13.221-7.287 0-13.221 5.934-13.221 13.221 0 .933.113 1.835.297 2.716-.697.738-1.138 1.732-1.138 2.829 0 2.155 1.664 3.907 3.769 4.102.487 2.055 1.586 3.972 3.332 5.507l-.063 2.108-3.61 1.586 4.812 4.86c.889.905 2.346.921 3.258.032l2.57-2.498-5.499-3.769.036-1.21c1.626.982 3.519 1.519 5.461 1.519 1.959 0 3.877-.562 5.463-1.518l.034 1.205-5.496 3.764 2.57 2.506c.915.882 2.372.874 3.269-.031zm-5.838-7.463c-4.901 0-9.057-3.963-9.057-9.065v-5.006l.002-.002v-.445c2.879 1.266 6.392.634 8.623-1.893 1.932 3.287 5.94 4.693 9.497 3.434v3.911c-.001 5.076-4.149 9.066-9.065 9.066z" fill="#000000" style="fill: rgb(34, 0, 77);"></path><path d="m22.014 27.82c-.7.699-1.839.699-2.538 0-.3-.3-.787-.3-1.087 0s-.3.787 0 1.087c.65.65 1.503.974 2.356.974s1.706-.324 2.356-.974c.3-.3.3-.787 0-1.087s-.787-.3-1.087 0z" fill="#000000" style="fill: rgb(34, 0, 77);"></path></g></svg>