<!-- icon666.com - MILLIONS vector ICONS FREE --><svg viewBox="0 0 32 32" xmlns="http://www.w3.org/2000/svg"><g id="_x30_6"><path d="m29.4189453 8.0917969-13-6c-.265625-.1220703-.5722656-.1220703-.8378906 0l-13 6c-.3544922.1635742-.5810547.5180664-.5810547.9082031v14c0 .3901367.2265625.7446289.5810547.9082031l13 6c.1328125.0610352.2758789.0917969.4189453.0917969s.2861328-.0307617.4189453-.0917969l13-6c.3544922-.1635742.5810547-.5180664.5810547-.9082031v-14c0-.3901367-.2265625-.7446289-.5810547-.9082031zm-13.4189453-3.9902344 10.6137695 4.8984375-1.7562866.8105469-10.1890259-5.0944824zm4.6973877 7.6289673-10.1889648-5.0944824 1.8342285-.8465576 10.1889648 5.0944824zm1.3026123 1.6018066 2-.9230957v4.9725952l-.5527344-.2763672c-.4521484-.2255859-1-.0795898-1.2792969.3398438l-.1679687.2519531zm-13.8174438-5.6228637 10.1889648 5.0944824-2.371521 1.0944824-10.6137695-4.8984375zm-4.1825562 2.8536377 11 5.0769043v11.796936l-11-5.0765991zm13 16.8738403v-11.796936l3-1.3845825v6.7445678c0 .4404297.2885742.8295898.7104492.9570313.0957031.0292968.1928711.0429687.2895508.0429687.328125 0 .6430664-.1621094.8320313-.4453125l1.5102539-2.265625 1.2104492.6054688c.3100586.1538086.6777344.1376953.9731445-.0439453.2944336-.182129.4741211-.5039063.4741211-.850586v-7.5137939l2-.9230957v11.7972412z" fill="#000000" style="fill: rgb(34, 0, 77);"></path></g></svg>