<!-- icon666.com - MILLIONS vector ICONS FREE --><svg version="1.1" id="Layer_1" xmlns="http://www.w3.org/2000/svg" xmlns:xlink="http://www.w3.org/1999/xlink" x="0px" y="0px" viewBox="0 0 512 512" style="enable-background:new 0 0 512 512;" xml:space="preserve"><path style="" d="M460.8,406.905H51.2c-23.812,0-43.116-19.304-43.116-43.116V94.316 C8.084,70.504,27.388,51.2,51.2,51.2h409.6c23.812,0,43.116,19.304,43.116,43.116v269.474 C503.916,387.601,484.612,406.905,460.8,406.905z" fill="#E2DCBC"></path><path style="fill: rgb(214, 216, 255);" d="M460.8,385.347H51.2c-11.906,0-21.558-9.651-21.558-21.558V94.316 c0-11.906,9.651-21.558,21.558-21.558h409.6c11.906,0,21.558,9.651,21.558,21.558v269.474 C482.358,375.696,472.706,385.347,460.8,385.347z" fill="#F4EECB"></path><path style="fill: rgb(214, 221, 255);" d="M385.347,428.463H126.653c-11.906,0-21.558-9.651-21.558-21.558l0,0 c0-11.906,9.651-21.558,21.558-21.558h258.695c11.906,0,21.558,9.651,21.558,21.558l0,0 C406.905,418.812,397.254,428.463,385.347,428.463z" fill="#BFBBA3"></path><path style="fill: rgb(34, 0, 77);" d="M385.347,331.453h-97.011V29.642c0-11.906,9.651-21.558,21.558-21.558h53.895 c11.906,0,21.558,9.651,21.558,21.558V331.453z" fill="#A3CCAA"></path><path style="fill: rgb(48, 31, 97);" d="M331.453,331.453h-97.011V148.211c0-11.906,9.651-21.558,21.558-21.558h53.895 c11.906,0,21.558,9.651,21.558,21.558V331.453z" fill="#80A886"></path><path style="fill: rgb(34, 17, 95);" d="M309.895,331.453h-97.011v-204.8c0-11.906,9.651-21.558,21.558-21.558h53.895 c11.906,0,21.558,9.651,21.558,21.558V331.453z" fill="#FC8059"></path><path style="fill: rgb(0, 14, 87);" d="M256,331.453h-97.011v-86.232c0-11.906,9.651-21.558,21.558-21.558h53.895 c11.906,0,21.558,9.651,21.558,21.558V331.453z" fill="#BF5243"></path><path style="fill: rgb(59, 31, 111);" d="M234.442,331.453h-97.011V223.663c0-11.906,9.651-21.558,21.558-21.558h53.895 c11.906,0,21.558,9.651,21.558,21.558V331.453z" fill="#FED766"></path><path style="fill: rgb(25, 0, 71);" d="M460.8,43.116h-67.368V29.642C393.432,13.298,380.134,0,363.789,0h-53.895 c-16.344,0-29.642,13.298-29.642,29.642v13.474H51.2c-28.231,0-51.2,22.969-51.2,51.2v269.474c0,28.231,22.969,51.2,51.2,51.2 h46.932c3.527,12.428,14.978,21.558,28.521,21.558H204.8v59.284h-99.705c-4.465,0-8.084,3.618-8.084,8.084s3.62,8.084,8.084,8.084 h301.811c4.466,0,8.084-3.618,8.084-8.084s-3.618-8.084-8.084-8.084H307.2v-59.284h78.147c13.543,0,24.994-9.13,28.522-21.558h46.93 c28.231,0,51.2-22.969,51.2-51.2V94.316C512,66.085,489.031,43.116,460.8,43.116z M296.421,29.642 c0-7.43,6.044-13.474,13.474-13.474h53.895c7.43,0,13.474,6.044,13.474,13.474v293.726h-59.284V126.653 c0-13.543-9.13-24.994-21.558-28.522V29.642z M288.337,113.179c7.43,0,13.474,6.044,13.474,13.474v196.716h-59.284v-99.705 c0-13.543-9.13-24.994-21.558-28.522v-68.488c0-7.43,6.044-13.474,13.474-13.474H288.337z M226.358,223.663v99.705h-80.842v-99.705 c0-7.43,6.044-13.474,13.474-13.474h53.895C220.314,210.189,226.358,216.233,226.358,223.663z M291.032,495.832h-70.063v-59.284 h70.063V495.832z M385.347,420.379h-86.232H126.653c-7.43,0-13.474-6.044-13.474-13.474s6.044-13.474,13.474-13.474h258.695 c7.43,0,13.474,6.044,13.474,13.474S392.777,420.379,385.347,420.379z M495.832,363.789c0,19.317-15.715,35.032-35.032,35.032 h-46.93c-3.527-12.428-14.978-21.558-28.522-21.558H126.653c-13.544,0-24.994,9.13-28.521,21.558H51.2 c-19.316,0-35.032-15.715-35.032-35.032V94.316c0-19.317,15.716-35.032,35.032-35.032h229.053v37.726h-45.811 c-16.345,0-29.642,13.298-29.642,29.642v67.368h-45.811c-16.345,0-29.642,13.298-29.642,29.642v99.705h-51.2 c-4.465,0-8.084,3.618-8.084,8.084c0,4.466,3.62,8.084,8.084,8.084h324.138c4.466,0,8.084-3.618,8.084-8.084 c0-4.466-3.618-8.084-8.084-8.084h-8.854V59.284H460.8c19.317,0,35.032,15.715,35.032,35.032V363.789z M441.937,331.453 c0,4.466-3.618,8.084-8.084,8.084h-1.588c-4.466,0-8.084-3.618-8.084-8.084c0-4.466,3.618-8.084,8.084-8.084h1.588 C438.318,323.368,441.937,326.987,441.937,331.453z" fill="#4C4C4C"></path></svg>