<!-- icon666.com - MILLIONS vector ICONS FREE --><svg id="Icons" viewBox="0 0 60 60" xmlns="http://www.w3.org/2000/svg"><path d="m51 20h2.001v16h-2.001z" fill="#000000" style="fill: rgb(34, 0, 77);"></path><path d="m56 2h-52a2 2 0 0 0 -2 2v4h56v-4a2 2 0 0 0 -2-2zm-50 4h-1a1 1 0 0 1 0-2h1a1 1 0 0 1 0 2zm5 0h-1a1 1 0 0 1 0-2h1a1 1 0 0 1 0 2zm5 0h-1a1 1 0 0 1 0-2h1a1 1 0 0 1 0 2zm39 0h-6a1 1 0 0 1 0-2h6a1 1 0 0 1 0 2z" fill="#000000" style="fill: rgb(34, 0, 77);"></path><path d="m4 58h52a2 2 0 0 0 2-2v-46h-56v46a2 2 0 0 0 2 2zm23-3h-20a1 1 0 0 1 0-2h20a1 1 0 0 1 0 2zm0-4h-20a1 1 0 0 1 0-2h20a1 1 0 0 1 0 2zm0-4h-20a1 1 0 0 1 0-2h20a1 1 0 0 1 0 2zm0-4h-20a1 1 0 0 1 0-2h20a1 1 0 0 1 0 2zm6-15a2 2 0 0 1 2-2h2v-8a2 2 0 0 1 2-2h2a2 2 0 0 1 2 2v3h2v-7a2 2 0 0 1 2-2h2a2 2 0 0 1 2 2v4h2a2 2 0 0 1 2 2v16a2 2 0 0 1 -2 2h-2a1.978 1.978 0 0 1 -1-.278 1.978 1.978 0 0 1 -1 .278h-2a1.978 1.978 0 0 1 -1-.278 1.978 1.978 0 0 1 -1 .278h-2a1.978 1.978 0 0 1 -1-.278 1.978 1.978 0 0 1 -1 .278h-2a1.978 1.978 0 0 1 -1-.278 1.978 1.978 0 0 1 -1 .278h-2a2 2 0 0 1 -2-2zm1 13h20a1 1 0 0 1 0 2h-20a1 1 0 0 1 0-2zm0 4h20a1 1 0 0 1 0 2h-20a1 1 0 0 1 0-2zm0 4h20a1 1 0 0 1 0 2h-20a1 1 0 0 1 0-2zm0 4h20a1 1 0 0 1 0 2h-20a1 1 0 0 1 0-2zm-17-41a13 13 0 1 1 -13 13 13.015 13.015 0 0 1 13-13z" fill="#000000" style="fill: rgb(34, 0, 77);"></path><path d="m21.9 24h6.05a11.01 11.01 0 0 0 -9.95-9.949v6.049a5.016 5.016 0 0 1 3.9 3.9z" fill="#000000" style="fill: rgb(34, 0, 77);"></path><path d="m17 30a4.969 4.969 0 0 1 -2.753-.833l-4.281 4.281a10.952 10.952 0 0 0 10.427 2.011l-2.385-5.559a5 5 0 0 1 -1.008.1z" fill="#000000" style="fill: rgb(34, 0, 77);"></path><path d="m19.844 29.1 2.388 5.571a11.014 11.014 0 0 0 5.717-8.671h-6.049a5 5 0 0 1 -2.056 3.1z" fill="#000000" style="fill: rgb(34, 0, 77);"></path><circle cx="17" cy="25" r="3" fill="#000000" style="fill: rgb(34, 0, 77);"></circle><path d="m12.833 27.753a4.991 4.991 0 0 1 3.167-7.653v-6.05a10.987 10.987 0 0 0 -7.448 17.984z" fill="#000000" style="fill: rgb(34, 0, 77);"></path><path d="m35 28h2v8h-2z" fill="#000000" style="fill: rgb(34, 0, 77);"></path><path d="m41 23 .001-.005-.001-4.995h-2v10 8h2z" fill="#000000" style="fill: rgb(34, 0, 77);"></path><path d="m49 20 .001-.005-.001-5.995h-2v9 13h2z" fill="#000000" style="fill: rgb(34, 0, 77);"></path><path d="m43 23h2v13h-2z" fill="#000000" style="fill: rgb(34, 0, 77);"></path></svg>