<!-- icon666.com - MILLIONS vector ICONS FREE --><svg id="Layer_1" enable-background="new 0 0 512 512" viewBox="0 0 512 512" xmlns="http://www.w3.org/2000/svg"><g><path d="m432.733 0h-145.666c-16.569 0-30 13.431-30 30v50.333h-66.4v-50.333c0-16.569-13.431-30-30-30h-145.667c-8.284 0-15 6.716-15 15v417.733c0 8.284 6.716 15 15 15h417.733c8.284 0 15-6.716 15-15v-417.733c0-8.284-6.715-15-15-15z" fill="#ffec29" style="fill: rgb(46, 20, 108);"></path><path d="m447.733 432.733v-417.733c0-8.284-6.716-15-15-15h-145.666c-16.569 0-30 13.431-30 30v50.333h-33.2v367.4h208.867c8.284 0 14.999-6.715 14.999-15z" fill="#ffcb00" style="fill: rgb(34, 0, 77);"></path><path d="m272.067 110.333h-96.4c-8.284 0-15-6.716-15-15v-95.333h126.4v95.333c0 8.285-6.716 15-15 15z" fill="#f5fafa" style="fill: rgb(9, 9, 42);"></path><circle cx="336.333" cy="352.4" fill="#324b5f" r="159.6"></circle><path d="m336.333 512c88.145 0 159.6-71.455 159.6-159.6s-71.455-159.6-159.6-159.6z" fill="#1e323c" style="fill: rgb(23, 12, 80);"></path><path d="m325.729 443.34-80.334-80.333c-5.859-5.859-5.852-15.361 0-21.213l45.444-45.444c5.858-5.859 15.361-5.853 21.213 0l24.282 24.284 104.616-104.617c5.859-5.859 15.361-5.853 21.213 0l45.444 45.444c5.859 5.859 5.852 15.361 0 21.213l-160.665 160.666c-5.858 5.859-15.357 5.857-21.213 0z" fill="#f5fafa" style="fill: rgb(9, 9, 42);"></path><g fill="#e1ebf0"><path d="m462.164 216.016c-5.852-5.852-15.354-5.858-21.213 0l-104.616 104.617-.002 127.1c3.839.001 7.679-1.464 10.608-4.393l160.667-160.667c5.852-5.852 5.859-15.354 0-21.213z" fill="#e1ebf0" style="fill: rgb(185, 184, 255);"></path><path d="m287.067 95.333v-95.333h-63.2v110.333h48.2c8.284 0 15-6.715 15-15z" fill="#e1ebf0" style="fill: rgb(185, 184, 255);"></path></g></g></svg>