<!-- icon666.com - MILLIONS vector ICONS FREE --><svg clip-rule="evenodd" fill-rule="evenodd" stroke-linejoin="round" stroke-miterlimit="2" viewBox="0 0 32 32" xmlns="http://www.w3.org/2000/svg"><g transform="translate(-40)"><path d="m48.5 23c0-.276-.224-.5-.5-.5h-2c-.276 0-.5.224-.5.5v2c0 .276.224.5.5.5h2c.276 0 .5-.224.5-.5z" fill="#000000" style="fill: rgb(34, 0, 77);"></path><path d="m48.5 17c0-.276-.224-.5-.5-.5h-2c-.276 0-.5.224-.5.5v2c0 .276.224.5.5.5h2c.276 0 .5-.224.5-.5z" fill="#000000" style="fill: rgb(34, 0, 77);"></path><path d="m48.5 11c0-.276-.224-.5-.5-.5h-2c-.276 0-.5.224-.5.5v2c0 .276.224.5.5.5h2c.276 0 .5-.224.5-.5z" fill="#000000" style="fill: rgb(34, 0, 77);"></path><path d="m69.5 7.5h-27v18.5c0 .928.369 1.818 1.025 2.475.657.656 1.547 1.025 2.475 1.025h20c.928 0 1.818-.369 2.475-1.025.656-.657 1.025-1.547 1.025-2.475zm-20 15.5c0-.828-.672-1.5-1.5-1.5h-2c-.828 0-1.5.672-1.5 1.5v2c0 .828.672 1.5 1.5 1.5h2c.828 0 1.5-.672 1.5-1.5zm1.5 1.5h16c.276 0 .5-.224.5-.5s-.224-.5-.5-.5h-16c-.276 0-.5.224-.5.5s.224.5.5.5zm-1.5-7.5c0-.828-.672-1.5-1.5-1.5h-2c-.828 0-1.5.672-1.5 1.5v2c0 .828.672 1.5 1.5 1.5h2c.828 0 1.5-.672 1.5-1.5zm1.5 1.5h16c.276 0 .5-.224.5-.5s-.224-.5-.5-.5h-16c-.276 0-.5.224-.5.5s.224.5.5.5zm-1.5-7.5c0-.828-.672-1.5-1.5-1.5h-2c-.828 0-1.5.672-1.5 1.5v2c0 .828.672 1.5 1.5 1.5h2c.828 0 1.5-.672 1.5-1.5zm1.5 1.5h16c.276 0 .5-.224.5-.5s-.224-.5-.5-.5h-16c-.276 0-.5.224-.5.5s.224.5.5.5z" fill="#000000" style="fill: rgb(34, 0, 77);"></path><path d="m69.5 6.5v-.5c0-.928-.369-1.818-1.025-2.475-.657-.656-1.547-1.025-2.475-1.025h-20c-.928 0-1.818.369-2.475 1.025-.656.657-1.025 1.547-1.025 2.475v.5zm-23-3c-.552 0-1 .448-1 1s.448 1 1 1 1-.448 1-1-.448-1-1-1zm3 0c-.552 0-1 .448-1 1s.448 1 1 1 1-.448 1-1-.448-1-1-1zm3 0c-.552 0-1 .448-1 1s.448 1 1 1 1-.448 1-1-.448-1-1-1z" fill="#000000" style="fill: rgb(34, 0, 77);"></path></g></svg>